<svg viewBox="0 0 64 64" xmlns="http://www.w3.org/2000/svg">
    <path fill="currentColor"
          d="M3 8c-1.654 0-3 1.346-3 3 0 1.3.83 2.4 2 2.81v28.36c-1.161.41-2 1.51-2 2.81v6c0 1.65 1.346 3 3 3h5.08c.48 3.38 3.4 6 6.91 6 3.51 0 6.43-2.62 6.91-6h22.16c.48 3.38 3.4 6 6.91 6 3.51 0 6.43-2.62 6.91-6h3.08c1.65 0 3-1.35 3-3v-6c0-1.32-.86-2.43-2.04-2.83 .01-.06.03-.12.03-.18v-3.83c0-.96-.28-1.9-.8-2.71l-7.19-11.18c-.93-1.44-2.5-2.3-4.21-2.3h-1.82v-2c0-.56-.45-1-1-1 -.56 0-1 .44-1 1v2h-4v-8.19c1.16-.42 2-1.52 2-2.82 0-1.654-1.35-3-3-3h-38Zm0 2h38c.55 0 1 .44 1 1 0 .55-.45 1-1 1H3c-.56 0-1-.45-1-1 0-.56.44-1 1-1Zm1 4h36v28H4V14Zm18 2c-6.62 0-12 5.38-12 12 0 6.61 5.38 12 12 12 6.61 0 12-5.39 12-12 0-6.62-5.39-12-12-12Zm0 2c5.51 0 10 4.48 10 10 0 5.51-4.49 10-10 10 -5.52 0-10-4.49-10-10 0-5.52 4.48-10 10-10Zm20 6h7.81c1.02 0 1.96.51 2.52 1.37l7.18 11.17c.31.48.47 1.04.47 1.62v3.82h-18v-18Zm-15 .05c-.26 0-.52.09-.71.29l-6.3 6.29 -2.3-2.3c-.4-.4-1.03-.4-1.42 0 -.391.39-.391 1.02 0 1.41l3 3c.19.19.45.29.7.29 .25 0 .51-.1.7-.3l7-7c.39-.4.39-1.03 0-1.42 -.2-.2-.46-.3-.71-.3Zm19 1.94c-1.11 0-2 .89-2 2v6c0 1.1.89 2 2 2h7.19c.72 0 1.39-.4 1.75-1.03 .35-.64.33-1.42-.06-2.03l-3.75-6.01c-.37-.59-1.01-.94-1.7-.94h-3.45Zm0 2h3.44l3.75 6h-7.21v-6Zm-1 10c-.56 0-1 .44-1 1 0 .55.44 1 1 1h2c.55 0 1-.45 1-1 0-.56-.45-1-1-1h-2Zm-42 6h58c.55 0 1 .44 1 1v6c0 .55-.45 1-1 1h-3.09c-.49-3.39-3.41-6-6.92-6 -3.52 0-6.44 2.61-6.92 6H21.9c-.49-3.39-3.41-6-6.92-6 -3.519 0-6.44 2.61-6.92 6H2.97c-.56 0-1-.45-1-1v-1c.55 0 1-.45 1-1v-2c0-.56-.45-1-1-1v-1c0-.56.44-1 1-1Zm4 2c-.56 0-1 .44-1 1v2c0 .55.44 1 1 1 .55 0 1-.45 1-1v-2c0-.56-.45-1-1-1Zm16 0c-.56 0-1 .44-1 1v2c0 .55.44 1 1 1 .55 0 1-.45 1-1v-2c0-.56-.45-1-1-1Zm5 0c-.56 0-1 .44-1 1v2c0 .55.44 1 1 1 .55 0 1-.45 1-1v-2c0-.56-.45-1-1-1Zm5 0c-.56 0-1 .44-1 1v2c0 .55.44 1 1 1 .55 0 1-.45 1-1v-2c0-.56-.45-1-1-1Zm5 0c-.56 0-1 .44-1 1v2c0 .55.44 1 1 1 .55 0 1-.45 1-1v-2c0-.56-.45-1-1-1Zm5 0c-.56 0-1 .44-1 1v2c0 .55.44 1 1 1 .55 0 1-.45 1-1v-2c0-.56-.45-1-1-1Zm16 0c-.56 0-1 .44-1 1v2c0 .55.44 1 1 1 .55 0 1-.45 1-1v-2c0-.56-.45-1-1-1Zm-44 2c2.75 0 5 2.24 5 5 0 2.75-2.25 5-5 5 -2.76 0-5-2.25-5-5 0-2.76 2.24-5 5-5Zm36 0c2.75 0 5 2.24 5 5 0 2.75-2.25 5-5 5 -2.76 0-5-2.25-5-5 0-2.76 2.24-5 5-5Zm-36 3v0c-1.11 0-2 .89-2 2v0c0 1.1.89 2 2 2v0c1.1 0 2-.9 2-2v0c0-1.11-.9-2-2-2Zm36 0v0c-1.11 0-2 .89-2 2v0c0 1.1.89 2 2 2v0c1.1 0 2-.9 2-2v0c0-1.11-.9-2-2-2Z"/>
</svg>