<svg viewBox="0 0 64 64" xmlns="http://www.w3.org/2000/svg" fill="currentColor">
    <path d="M37.39 0c-3.52-.001-6.4 2.87-6.4 6.39v3.6h-.12c-4.08 0-7.58 2.46-8.95 6h-4.09c-4.88 0-8.85 3.99-8.85 8.89v3.1h-.54c-2.46 0-4.47 2.04-4.47 4.55v.44h-.39c-2 0-3.62 1.64-3.62 3.67v.64c0 2.03 1.61 3.67 3.61 3.67h.38v1.44c0 2.51 2 4.55 4.46 4.55h.53v4.1c0 4.9 3.96 8.89 8.84 8.89h28.3c4.88 0 8.84-4 8.84-8.9v-4.11h.58c2.43 0 4.41-2.05 4.41-4.56v-1.45h.49c2 0 3.61-1.65 3.61-3.68v-.65c0-2.04-1.62-3.68-3.62-3.68h-.5v-.45c0-2.51-1.99-4.56-4.42-4.56h-.59v-3.11c0-4.9-3.97-8.9-8.85-8.9h-3.99c-1.36-3.54-4.86-6-8.94-6h-.24V6.27c0-2.42 1.97-4.4 4.39-4.4h.21c2.08 0 3.83 1.46 4.27 3.4 -1.12.59-1.89 1.75-1.89 3.09 0 1.93 1.57 3.5 3.5 3.5s3.5-1.57 3.5-3.5c0-1.81-1.39-3.32-3.16-3.49 -.63-2.86-3.2-5.02-6.25-5.02h-.22Zm6.1 7c.09 0 .17 0 .26.02 .7.12 1.23.73 1.23 1.47 0 .83-.67 1.5-1.5 1.5s-1.5-.67-1.5-1.5c0-.49.22-.93.59-1.19h0c.125-.1.26-.18.41-.24 .15-.06.3-.09.47-.09Zm-12.62 5h2.34c2.94 0 5.5 1.61 6.74 4H24.11c1.24-2.39 3.8-4 6.74-4Zm-13.04 5.98h28.3c3.78 0 6.84 3.1 6.84 6.91v3.1 2 4.99 4 5.99 2 4.1c0 3.81-3.07 6.91-6.85 6.91H17.81c-3.78 0-6.85-3.11-6.85-6.92V40.95v-11 -2.01 -3.11c0-3.81 3.06-6.92 6.84-6.92Zm1.96 3.01c-.49 0-.97.17-1.32.53l-1.97 1.96c-.72.72-.72 1.89 0 2.62l1.87 1.87 -1.88 1.86c-.72.73-.72 1.91 0 2.63l1.96 1.97c.37.35.84.53 1.32.53 .47 0 .95-.18 1.31-.54l1.86-1.89 1.86 1.88c.72.71 1.9.71 2.63 0l1.96-1.98c.71-.72.71-1.91 0-2.64l-1.88-1.87 1.87-1.88c.71-.73.71-1.91 0-2.63l-1.97-1.97c-.7-.71-1.94-.71-2.64 0l-1.87 1.87 -1.87-1.88c-.35-.36-.84-.54-1.32-.54Zm21.09 1.02c-3.38.3-5.93 3.08-5.93 6.47 0 3.58 2.91 6.5 6.5 6.5 2.89 0 5.47-1.95 6.26-4.73 .15-.54-.16-1.09-.69-1.24 -.54-.15-1.09.15-1.24.68 -.55 1.92-2.33 3.27-4.34 3.27 -2.49 0-4.51-2.02-4.51-4.5 0-2.31 1.8-4.28 4.1-4.49 .55-.05.95-.54.9-1.09 -.05-.55-.52-.95-1.09-.91Zm-21.1 1.01l3.17 3.19 3.17-3.2 1.75 1.76 -3.18 3.18 3.17 3.18 -1.76 1.75 -3.18-3.19 -3.18 3.18 -1.76-1.76 3.17-3.19 -3.18-3.19 1.75-1.77Zm25.08.22c-.26.02-.5.14-.68.35 -.36.42-.3 1.05.13 1.4 .47.39.86.87 1.14 1.42 .17.34.52.54.89.54 .15 0 .3-.04.45-.11 .49-.26.68-.86.43-1.35 -.41-.8-.97-1.49-1.66-2.06 -.22-.18-.48-.25-.74-.23ZM8.41 29.98h.53v2.99 8 3.99H8.4c-1.36 0-2.47-1.15-2.47-2.55v-1.45 -2 -4 -2 -.45c0-1.4 1.1-2.55 2.46-2.55Zm46.53 0h.58c1.33 0 2.41 1.14 2.41 2.54v.44 2 4 2 1.44c0 1.4-1.09 2.54-2.42 2.54h-.59V29.95ZM3.55 34.97h.38v4h-.39c-.89 0-1.62-.75-1.62-1.68v-.65c0-.93.72-1.68 1.61-1.68Zm56.38 0h.49c.89 0 1.61.74 1.61 1.67v.64c0 .93-.73 1.67-1.62 1.67h-.5v-4Zm-28 2.99c-.26 0-.52.09-.71.29l-4.23 4.2 -4.23-4.21c-.39-.38-1.03-.38-1.42 0l-6.17 6.13c-.38.38-.39.99-.02 1.38l2.45 2.66c.18.2.43.3.7.31 .28-.01.54-.1.73-.29l2.99-2.99 4.23 4.2c.39.39 1.01.37 1.4 0l4.22-4.21 4.21 4.2c.2.18.44.28.7.28 .25 0 .51-.1.71-.29l4.2-4.21 2.99 2.98c.19.19.45.27.72.28 .28-.01.52-.12.71-.32l2.45-2.67c.37-.39.36-1.01-.02-1.39l-6.16-6.14c-.39-.39-1.03-.39-1.42 0l-4.23 4.2 -4.22-4.21c-.2-.2-.46-.3-.71-.3Zm-9.86 2.41l4.23 4.19c.39.39 1.01.39 1.4 0l4.22-4.2 4.21 4.19c.39.39 1.02.39 1.41 0l4.2-4.2 4.75 4.74 -1.09 1.18 -2.96-2.95c-.39-.39-1.03-.39-1.42 0l-4.23 4.19 -4.22-4.2c-.19-.19-.46-.3-.71-.3 -.26 0-.51.1-.71.29l-4.23 4.19 -4.23-4.2c-.39-.39-1.03-.39-1.42 0l-2.97 2.94 -1.09-1.19 4.75-4.75Zm-5.16 11.58c-.55 0-1 .44-1 .99v1.99c0 .54.45.99 1 .99s1-.46 1-1v-2c0-.55-.45-1-1-1Zm5 0c-.55 0-1 .44-1 .99v1.99c0 .54.45.99 1 .99s1-.46 1-1v-2c0-.55-.45-1-1-1Zm5 0c-.55 0-1 .44-1 .99v1.99c0 .54.45.99 1 .99s1-.46 1-1v-2c0-.55-.45-1-1-1Zm5 0c-.55 0-1 .44-1 .99v1.99c0 .54.45.99 1 .99s1-.46 1-1v-2c0-.55-.45-1-1-1Zm5 0c-.55 0-1 .44-1 .99v1.99c0 .54.45.99 1 .99s1-.46 1-1v-2c0-.55-.45-1-1-1Zm5 0c-.55 0-1 .44-1 .99v1.99c0 .54.45.99 1 .99s1-.46 1-1v-2c0-.55-.45-1-1-1Zm5 0c-.55 0-1 .44-1 .99v1.99c0 .54.45.99 1 .99s1-.46 1-1v-2c0-.55-.45-1-1-1Z"/>
</svg>