<svg viewBox="0 0 64 64" xmlns="http://www.w3.org/2000/svg">
    <path fill="currentColor"
          d="M32.36 5c-7.58 0-14.12 2.03-18.83 5.52C8.82 14 5.98 18.99 5.98 24.68c0 .82.33 1.8 1.16 2.58 .82.77 2.05 1.4 3.93 1.94 2.55.73 6.37 1.28 12.03 1.57 -.66 2.5-1.46 4.99-2.19 7.85 -1.02 3.94-1.95 6.63-1.95 8.88 0 2.68.44 5.4 1.33 7.54 .44 1.07.99 2 1.71 2.72 .71.71 1.65 1.2 2.69 1.2h15.52c1.04 0 1.97-.51 2.68-1.23 .71-.73 1.26-1.67 1.7-2.75 .88-2.16 1.34-4.87 1.34-7.51 0-2.25-.93-4.94-1.95-8.89v0c0-.01 0-.01 0-.01 -.74-2.87-1.55-5.36-2.2-7.88 5.41-.29 9.02-.84 11.41-1.57 1.79-.55 2.95-1.19 3.71-1.99 .75-.8 1-1.77 1-2.54 0-5.66-2.65-10.66-7.17-14.15C46.2 6.94 39.82 4.9 32.25 4.9Zm0 2c7.21 0 13.15 1.94 17.25 5.11 4.09 3.16 6.38 7.52 6.38 12.56 0 .43-.06.74-.47 1.16 -.41.42-1.25.96-2.84 1.44 -3.2.96-9.31 1.7-20.34 1.7 -11.04 0-17.33-.74-20.72-1.71 -1.7-.49-2.65-1.04-3.12-1.48 -.48-.45-.54-.75-.54-1.13 0-5.03 2.44-9.38 6.73-12.56 4.28-3.18 10.41-5.14 17.62-5.14Zm-2.44 3.08l-2.19.22 -.76.47 -.07.89 .67.58 .35.02 2.18-.22 .75-.49 .06-.9 -.68-.59 -.36-.03Zm-5.83.98l-.36.04 -1.13.33 -.05.01 -1.09.38 -.05.01 -1.04.42 -.05.01 -1 .46 -.05.02 -.94.5 -.05.02 -.89.54 -.05.03 -.84.57 -.05.03 -.78.61 -.05.04 -.73.64 -.05.04 -.67.67 -.05.05 -.61.71 -.05.05 -.54.74 -.05.06 -.48.77 -.04.07 -.41.79 -.04.07 -.34.82 -.03.08 -.27.84 .14.88 .79.41 .8-.39 .16-.32 .25-.82 .3-.74 .37-.74 .43-.71 .51-.71 0-.01 .52-.62 .62-.65 .68-.62 0-.01 .67-.54 .01-.01 .8-.56 .01-.02 .82-.5 .01-.01 .86-.47 .02-.02 .89-.42 0-.01 .98-.41 .01-.01 1.06-.38 0-.01 1.07-.33 .65-.62 -.11-.9 -.78-.46Zm15.72 19.8c0-.01 0 0 0 0 .68 2.73 1.54 5.33 2.29 8.26 1.03 4 1.87 6.74 1.87 8.38 0 2.39-.45 4.92-1.2 6.74 -.38.91-.83 1.64-1.28 2.09 -.46.45-.85.63-1.27.63H24.69c-.45 0-.84-.18-1.29-.63 -.45-.45-.9-1.17-1.27-2.07 -.75-1.81-1.19-4.33-1.19-6.79 0-1.65.84-4.39 1.87-8.39v0c0-.01 0-.01 0-.01 .75-2.94 1.6-5.53 2.29-8.26 2.14.07 4.52.11 7.18.11 2.78 0 5.25-.05 7.45-.13ZM24.97 49.97v0c-.56 0-1 .46-.99 1.01v2 0c-.01.55.43 1 .98 1.01 .55 0 1-.44 1.01-.99 0-.01 0-.02 0-.03v-2 0c0-.56-.44-1.01-.99-1.02 -.01-.01-.02-.01-.03 0Zm5 0v0c-.56 0-1 .46-.99 1.01v2 0c-.01.55.43 1 .98 1.01 .55 0 1-.44 1.01-.99 0-.01 0-.02 0-.03v-2 0c0-.56-.44-1.01-.99-1.02 -.01-.01-.02-.01-.03 0Zm5 0v0c-.56 0-1 .46-.99 1.01v2 0c-.01.55.43 1 .98 1.01 .55 0 1-.44 1.01-.99 0-.01 0-.02 0-.03v-2 0c0-.56-.44-1.01-.99-1.02 -.01-.01-.02-.01-.03 0Zm5 0v0c-.56 0-1 .46-.99 1.01v2 0c-.01.55.43 1 .98 1.01 .55 0 1-.44 1.01-.99 0-.01 0-.02 0-.03v-2 0c0-.56-.44-1.01-.99-1.02 -.01-.01-.02-.01-.03 0Z"/>
</svg>