<svg viewBox="0 0 48 48" xmlns="http://www.w3.org/2000/svg">
    <path fill="currentColor"
          d="M8.25 3.75c-.56 0-1.06.3-1.33.78 -.27.48-.24 1.06.06 1.53l12.16 18.79L6.27 42.6c-.34.45-.38 1.05-.13 1.55s.77.82 1.33.82h3.77c.48 0 .93-.24 1.21-.63l10.19-14.06 9.05 13.99c.27.42.75.68 1.26.68h6.75c.55 0 1.05-.31 1.31-.79 .26-.49.24-1.07-.06-1.54L28.07 22.72l12.07-16.67c.33-.46.37-1.06.12-1.56 -.26-.51-.78-.83-1.34-.83h-3.78c-.49 0-.94.23-1.22.62l-9.4 12.96 -8.35-12.9c-.28-.43-.76-.69-1.27-.69Zm0 1.5H15l8.64 13.36c.22.33.58.51.94.51 .34 0 .68-.16.91-.47l9.72-13.42h3.77L26.75 22.1c-.28.37-.29.88-.04 1.26l13.01 20.1h-6.75L23.61 29c-.23-.34-.59-.52-.95-.52 -.35 0-.69.15-.92.46l-10.52 14.5H7.44l13.01-17.97c.27-.375.28-.89.03-1.28Zm6.25 3.69c-.1.01-.2.05-.28.1 -.35.22-.45.68-.23 1.03l1.62 2.51c.14.22.38.34.62.34 .14 0 .28-.04.4-.13 .34-.23.44-.69.22-1.04l-1.63-2.52c-.17-.27-.47-.39-.76-.34Zm3.25 5.03c-.1.01-.2.05-.28.1 -.35.22-.45.69-.23 1.03l3.25 5.03c.14.22.38.34.62.34 .14 0 .28-.04.4-.13 .34-.23.44-.69.22-1.04l-3.26-5.04c-.17-.27-.48-.39-.76-.34Zm3.97 20.49c-.19.03-.37.13-.49.3 -.25.33-.18.8.16 1.04l1.21.88c.33.24.8.17 1.04-.17s.17-.81-.17-1.05l-1.22-.9c-.17-.13-.37-.17-.56-.14Zm-2.22 3.02c-.2.03-.37.13-.5.3 -.25.33-.18.8.16 1.04l1.2.88c.33.24.8.17 1.04-.17s.17-.81-.17-1.05l-1.21-.9c-.17-.13-.37-.17-.56-.14Zm-2.22 3.02c-.19.02-.37.12-.49.29 -.25.33-.18.8.16 1.05l1.21.88c.33.24.8.17 1.04-.17s.17-.81-.17-1.05l-1.22-.89c-.17-.125-.37-.17-.56-.14Zm-2.22 3.02c-.2.02-.38.13-.5.29 -.25.33-.18.8.16 1.05l1.21.88c.33.24.8.17 1.04-.17s.17-.81-.17-1.06l-1.22-.89c-.17-.13-.37-.17-.56-.14Z"/>
</svg>