<svg viewBox="0 0 64 64" xmlns="http://www.w3.org/2000/svg">
    <path fill="currentColor"
          d="M32 4c-2.21 0-4 1.79-4 4 0 1.68 1.05 3.12 2.52 3.71l-8.94 17.86 -10.85-6.68c.77-.73 1.25-1.76 1.25-2.9 0-2.21-1.8-4-4-4 -2.21 0-4 1.79-4 4 0 2.2 1.79 4 4 4 .04 0 .09-.02.14-.02l3.69 24.01h-.84c-.56 0-1 .44-1 1v10c0 .55.44 1 1 1h42c.55 0 1-.45 1-1v-10c0-.56-.45-1-1-1h-.84l3.69-24.02c.04 0 .09.01.14.01 2.2 0 4-1.8 4-4 0-2.21-1.8-4-4-4 -2.21 0-4 1.79-4 4 0 1.14.48 2.16 1.25 2.89l-10.86 6.67 -8.94-17.87c1.47-.59 2.52-2.03 2.52-3.72 0-2.21-1.8-4-4-4Zm0 2c1.1 0 2 .89 2 2 0 1.1-.9 2-2 2 -1.11 0-2-.9-2-2 0-1.11.89-2 2-2Zm0 7.23l9.1 18.21c.12.25.34.43.61.51 .27.07.55.03.79-.12l11.15-6.87 -3.55 23.01H13.81l-3.54-23.02 11.15 6.86c.23.14.52.18.79.11 .26-.08.49-.27.61-.52l9.1-18.22ZM8 17.99c1.1 0 2 .89 2 2 0 1.1-.9 2-2 2 -1.11 0-2-.9-2-2 0-1.11.89-2 2-2Zm48 0c1.1 0 2 .89 2 2 0 1.1-.9 2-2 2 -1.11 0-2-.9-2-2 0-1.11.89-2 2-2Zm-44 32h40v8H12v-8Zm5 2c-.56 0-1 .44-1 1v2c0 .55.44 1 1 1 .55 0 1-.45 1-1v-2c0-.56-.45-1-1-1Zm5 0c-.56 0-1 .44-1 1v2c0 .55.44 1 1 1 .55 0 1-.45 1-1v-2c0-.56-.45-1-1-1Zm5 0c-.56 0-1 .44-1 1v2c0 .55.44 1 1 1 .55 0 1-.45 1-1v-2c0-.56-.45-1-1-1Zm5 0c-.56 0-1 .44-1 1v2c0 .55.44 1 1 1 .55 0 1-.45 1-1v-2c0-.56-.45-1-1-1Zm5 0c-.56 0-1 .44-1 1v2c0 .55.44 1 1 1 .55 0 1-.45 1-1v-2c0-.56-.45-1-1-1Zm5 0c-.56 0-1 .44-1 1v2c0 .55.44 1 1 1 .55 0 1-.45 1-1v-2c0-.56-.45-1-1-1Zm5 0c-.56 0-1 .44-1 1v2c0 .55.44 1 1 1 .55 0 1-.45 1-1v-2c0-.56-.45-1-1-1Z"/>
</svg>