<svg viewBox="0 0 64 64" xmlns="http://www.w3.org/2000/svg">
    <path fill="currentColor"
          d="M58.43 3.52c-.19 0-.37.02-.54.07l-12.81 4c-1.3.4-2.1 1.6-2.1 2.9v6.09l-21.41 21.4h-7.8c-1.1 0-2.11.39-2.81 1.19l-8.41 8.4c-.6.6-.81 1.4-.41 2.2 .4.8 1 1.19 1.8 1.19h4.59l-2.6 2.59c-.8.8-.8 2 0 2.8l1.59 1.59c.4.4.9.59 1.4.59 .5 0 1-.2 1.4-.6l2.59-2.6v4.59c0 .8.49 1.5 1.19 1.8 .2.1.5.19.8.19 .5 0 1-.2 1.4-.6l8.4-8.41c.7-.7 1.19-1.81 1.19-2.81v-7.8l21.4-21.41h6.09c1.3 0 2.5-.8 2.9-2.1l4-12.81c.2-.7 0-1.5-.5-2 -.38-.38-.92-.59-1.47-.58Zm-2.04 2.67l-4 4c-.4.4-.4 1 0 1.4 .2.2.49.3.69.3 .2 0 .5-.11.7-.31l4-4 -3.31 10.7c-.1.4-.5.69-1 .69h-6.1l-2.41-2.41v-6.1c0-.4.29-.8.69-1l10.7-3.31Zm-6.21 6.6c-.25 0-.5.09-.7.29l-1.1 1.09c-.4.4-.4 1 0 1.4 .2.2.49.3.69.3 .2 0 .5-.11.7-.31l1.09-1.1c.4-.4.4-1.01 0-1.41 -.2-.2-.46-.3-.71-.3Zm-6.2 5.59l1.59 1.59 -1.6 1.59 -1.6-1.6 1.59-1.6Zm-3 3l1.59 1.59 -1.6 1.59 -1.6-1.6 1.59-1.6Zm7.09 2.19c-.25 0-.5.1-.7.3 -.4.4-.4 1 0 1.4l1.4 1.39c.2.2.39.3.69.3 .3 0 .49-.11.69-.31 .4-.4.4-1 0-1.4l-1.4-1.41c-.2-.2-.46-.31-.71-.31Zm-10.1.8l1.59 1.59 -30.6 30.59 -1.6-1.6 30.59-30.6Zm6.3 3c-.25 0-.51.09-.71.29 -.4.4-.4 1 0 1.4l1.4 1.4c.2.2.39.3.69.3 .3 0 .5-.11.7-.31 .4-.4.4-1.01 0-1.41l-1.41-1.41c-.2-.2-.45-.3-.7-.3Zm-3.81 3.79c-.25 0-.5.1-.7.3 -.4.4-.4 1 0 1.4l1.39 1.4c.2.2.4.29.7.29 .3 0 .49-.1.69-.3 .4-.4.4-1.01 0-1.41l-1.41-1.41c-.2-.2-.45-.31-.7-.31Zm-3.81 3.7c-.25 0-.5.09-.7.29 -.4.4-.4 1 0 1.4l1.4 1.4c.2.2.39.3.69.3 .3 0 .5-.01.7-.31 .4-.4.4-1.01 0-1.41l-1.41-1.41c-.2-.2-.46-.3-.71-.3Zm-3.8 3.79c-.25 0-.51.1-.71.3 -.4.4-.4 1 0 1.4l1.4 1.4c.2.2.4.29.7.29 .3 0 .59-.1.69-.3 .4-.4.4-1.01 0-1.41l-1.41-1.41c-.2-.2-.45-.31-.7-.31Zm-19.1 1.3h5.79l-9 9h-6.6l8.4-8.41c.4-.4.9-.6 1.4-.6Zm15.39 2.5c-.25 0-.5.1-.7.3 -.4.4-.4.99 0 1.39l1.4 1.4c.2.2.39.3.69.3 .2 0 .5-.11.7-.31 .4-.4.4-1.01 0-1.41l-1.41-1.4c-.2-.2-.46-.31-.71-.31Zm-5.2 1.9v5.79c0 .5-.2 1-.6 1.4l-8.41 8.4v-6.6l9-9Z"/>
</svg>