<svg viewBox="0 0 64 64" xmlns="http://www.w3.org/2000/svg">
    <path fill="currentColor"
          d="M13.22 7c-2.04 0-3.68.74-4.86 1.82 -1.18 1.08-1.92 2.48-2.41 3.83 -.8 2.19-.93 4.27-.96 5h0c-.01 0-.01 0 0 0h0c-.1.27-.07.58.08.83l3.76 6.53 -3.8 7.51h0c-.12.22-.14.48-.07.72l0 6.56v0c-.02.1-.02.21 0 .32v6.84 9 0c0 .55.44.99 1 1h9 34 9v0c.55-.01.99-.45 1-1v-9 -6.84h-.001c.01-.11.01-.22 0-.33v-6.85 0c0-.01 0-.01 0-.01v0c-.01-.03-.01-.06-.01-.09v0c0-.01 0-.01 0-.02h0c-.01-.01-.01-.02-.01-.03v0c-.01-.03-.01-.06-.02-.08v0c-.01-.01-.01-.01-.01-.01h-.001c-.01-.04-.02-.07-.03-.09v0c-.01-.03-.02-.05-.03-.07v0c-.01-.01-.01-.02-.01-.03v0c-.01-.01-.01-.02-.01-.03v0c-.01-.02-.02-.03-.02-.04l-3.77-7.52 3.73-6.54v0c0-.02.01-.03.02-.05v-.001c.1-.2.13-.43.1-.65 -.02-.43-.13-2.72-1.03-5.17 -.5-1.35-1.25-2.74-2.41-3.83 -1.17-1.09-2.79-1.84-4.79-1.84H13.09Zm0 2h37.55c1.52 0 2.57.5 3.41 1.29 .84.78 1.46 1.89 1.89 3.05 .55 1.5.73 2.77.81 3.65h-2.91 0c-.56-.01-1.01.43-1.02.98 -.01.55.43 1 .98 1.01 0 0 .01 0 .02 0h2.27l-2.86 5H39.94v0c-.16-.01-.32.03-.46.1 -.4-.14-.82-.22-1.27-.22 -.71 0-1.33.27-1.92.55 -.53-.28-1.06-.56-1.7-.56 -.3 0-.52.16-.79.22 -.64-1.8-2.27-3.12-4.27-3.12 -1.93 0-3.52 1.22-4.21 2.9 -.05-.01-.09-.02-.14-.02 -.37 0-.71.05-1.04.13v0c-.08-.02-.16-.03-.24-.03H10.47l-2.89-5h18.3 11 5 -.001c.55 0 1-.44 1.01-.99 0-.56-.44-1.01-.99-1.02 -.01-.01-.02-.01-.03 0h-4.08c-.46-3.35-3.13-6-6.43-6s-5.98 2.65-6.43 6h-18c.06-.88.22-2.15.76-3.67 .41-1.15 1.02-2.26 1.88-3.05 .85-.79 1.92-1.3 3.49-1.3Zm18.27 4c2.12 0 3.88 1.71 4.31 4h-8.64c.43-2.29 2.19-4 4.31-4Zm14.5 4h0c-.56-.01-1.01.43-1.02.98 -.01.55.43 1 .98 1.01 0 0 .01 0 .02 0h4 -.001c.55 0 1-.44 1.01-.99 0-.56-.44-1.01-.99-1.02 -.01-.01-.02-.01-.03 0h-4ZM29.6 23c1.37 0 2.47 1.04 2.58 2.39v0c.04.55.53.95 1.08.9 .15-.02.29-.07.42-.14 .29-.18.61-.28.96-.28 .41 0 .78.13 1.1.36v0c.33.24.77.25 1.125.04 .41-.26.87-.41 1.38-.41 .99 0 1.83.55 2.28 1.37v0c.25.47.83.65 1.31.41 .45-.23.93-.36 1.45-.36 1.85 0 3.33 1.48 3.33 3.33v0c0 .55.44.99 1 1 .51 0 1 .12 1.44.33H36.94h-11H15.29c.37-.21.79-.34 1.25-.34 .17 0 .35.01.52.05v0c.54.11 1.06-.24 1.18-.78 .01-.07.02-.14.02-.21 0-.22-.01-.23-.01-.08 0-1.06.83-1.9 1.88-1.9 .34 0 .66.09.96.27v0c.47.28 1.08.12 1.37-.35 .07-.14.12-.28.13-.43 .11-1.35 1.21-2.4 2.58-2.4 .18 0 .37.02.57.06v0c.53.11 1.07-.23 1.19-.77 0-.02 0-.03 0-.05 .21-1.23 1.26-2.16 2.56-2.16Zm-19 3h10.89c-.21.31-.38.64-.51 1 -.28-.07-.5-.23-.79-.23 -1.79 0-3.25 1.25-3.69 2.9 -1.41.02-2.68.66-3.5 1.68v0c-.16.17-.24.39-.25.63H7.54l3.02-6Zm35.21 0h7.55l3 6h-4.32c-.82-1.14-2.11-1.85-3.56-2.1 -.26-1.69-1.27-3.12-2.69-3.91ZM6.97 34h18v4.5c0 .16.01.33.02.5H6.96v-5Zm20 0h9v4.5c0 2.47-2.03 4.5-4.5 4.5 -2.48 0-4.5-2.03-4.5-4.5V34Zm11 0h13.52 5.47v5H37.93c.01-.17.02-.34.02-.5V34Zm-6.5 2c-.83 0-1.5.75-1.5 1.66v1.66c0 .91.67 1.66 1.5 1.66 .82 0 1.5-.76 1.5-1.67v-1.67c0-.92-.68-1.67-1.5-1.67Zm-24.5 5h18.5c.98 2.34 3.3 4 5.99 4 2.68 0 5-1.66 5.99-4h19.5v5.05c-4.72.47-8.48 4.23-8.95 8.94H15.89c-.48-4.72-4.24-8.48-8.95-8.95v-5.06Zm40 6c-.56 0-1 .44-1 1v2c0 .55.44 1 1 1 .55 0 1-.45 1-1v-2c0-.56-.45-1-1-1Zm-30 .01c-.56 0-1 .44-1 .99v1.99c0 .54.44.99 1 .99 .55 0 1-.45 1-1v-2c0-.55-.45-1-1-1Zm5 0c-.56 0-1 .44-1 .99v1.99c0 .54.44.99 1 .99 .55 0 1-.45 1-1v-2c0-.55-.45-1-1-1Zm5 0c-.56 0-1 .44-1 .99v1.99c0 .54.44.99 1 .99 .55 0 1-.45 1-1v-2c0-.55-.45-1-1-1Zm5 0c-.56 0-1 .44-1 .99v1.99c0 .54.44.99 1 .99 .55 0 1-.45 1-1v-2c0-.55-.45-1-1-1Zm5 0c-.56 0-1 .44-1 .99v1.99c0 .54.44.99 1 .99 .55 0 1-.45 1-1v-2c0-.55-.45-1-1-1Zm5 0c-.56 0-1 .44-1 .99v1.99c0 .54.44.99 1 .99 .55 0 1-.45 1-1v-2c0-.55-.45-1-1-1Zm-35 1.18c3.58.46 6.33 3.2 6.79 6.79h-6.8v-6.8Zm50 0v6.79h-6.8c.46-3.59 3.2-6.34 6.79-6.8Z"/>
</svg>