<svg viewBox="0 0 48 48" xmlns="http://www.w3.org/2000/svg">
    <path fill="currentColor"
          d="M24 .76c-.24 0-.48.1-.62.3 -.53.75-3.14 4.62-3.14 6.42 0 1.81 1.29 3.32 3 3.67v.82h-1.5c-.42 0-.75.33-.75.75v6.75h-4.5v-3.75c0-.42-.34-.75-.75-.75h-1.5v-.86c1.29-.34 2.25-1.5 2.25-2.9 0-1.41-1.99-4.36-2.39-4.93 -.29-.41-.96-.41-1.24 0 -.4.57-2.39 3.51-2.39 4.92 0 1.39.95 2.55 2.25 2.89v.85h-1.5c-.42 0-.75.33-.75.75v3.75H6.72c-2.08 0-3.75 1.67-3.75 3.75 0 1.94.38 3.21 1.5 4.47v14.27H.86c-.29 0-.55.16-.67.41 -.13.25-.11.55.07.78l.89 1.19c.98 1.31 2.55 2.1 4.19 2.1h37.5c1.64 0 3.21-.79 4.2-2.11l.89-1.2c.16-.23.19-.54.07-.79 -.125-.26-.39-.42-.68-.42h-3.9V27.61c.92-1.12 1.48-2.54 1.5-4.06v-.42c0-2.08-1.68-3.75-3.75-3.75h-3.75v-5.25c0-.42-.34-.75-.75-.75h-1.5v-.86c1.29-.34 2.25-1.5 2.25-2.9 0-1.41-1.99-4.36-2.39-4.93 -.29-.41-.96-.41-1.24 0 -.4.57-2.39 3.51-2.39 4.92 0 1.39.95 2.55 2.25 2.89v.85h-1.5c-.42 0-.75.33-.75.75v5.25h-4.5V12.6c0-.42-.34-.75-.75-.75h-1.5v-.83c1.7-.36 3-1.87 3-3.68 0-1.8-2.61-5.67-3.14-6.43 -.15-.21-.38-.31-.62-.31Zm0 2.08c1.07 1.68 2.25 3.82 2.25 4.64 0 .97-.63 1.8-1.5 2.11V8.22c0-.42-.34-.75-.75-.75 -.42 0-.75.33-.75.75v1.36c-.88-.32-1.5-1.14-1.5-2.12 0-.83 1.17-2.96 2.25-4.65ZM34.5 6.6c.8 1.27 1.5 2.63 1.5 3.13 0 .55-.31 1.03-.75 1.29v-.55c0-.42-.34-.75-.75-.75 -.42 0-.75.33-.75.75v.54c-.45-.27-.75-.74-.75-1.3 0-.5.69-1.86 1.5-3.14Zm-21 1.5c.8 1.27 1.5 2.63 1.5 3.13 0 .55-.31 1.03-.75 1.29v-.55c0-.42-.34-.75-.75-.75 -.42 0-.75.33-.75.75v.54c-.45-.27-.75-.74-.75-1.3 0-.5.69-1.86 1.5-3.14Zm9 5.38h3v6h-3Zm10.5 1.5h3v4.5h-3Zm-21 1.5h3v3h-3Zm-5.25 4.5h34.5c1.18 0 2.16.92 2.24 2.09 -.01.22 0 .44 0 .55 -.01.67-.16 1.33-.43 1.93 -.26.58-.63 1.11-1.08 1.55 -.62.6-1.38 1.03-2.25 1.23 -1.74.38-3.49-.16-4.64-1.38 -.28-.29-.52-.61-.72-.97 -.27-.47-1.04-.47-1.31 0 -.2.35-.44.67-.72.96 -.91.94-2.17 1.5-3.51 1.5 -1.34 0-2.61-.56-3.51-1.5 -.29-.29-.53-.61-.72-.97 -.14-.24-.39-.375-.66-.375s-.52.14-.66.375c-.2.35-.44.67-.72.96 -.91.94-2.17 1.5-3.51 1.5 -1.34 0-2.61-.56-3.51-1.5 -.29-.29-.53-.61-.72-.97 -.14-.24-.39-.375-.66-.375s-.52.14-.66.375c-.21.35-.45.67-.72.96 -1.16 1.21-2.91 1.75-4.64 1.37 -.87-.2-1.63-.63-2.25-1.24 -.46-.45-.83-.98-1.08-1.56 -.27-.61-.42-1.07-.42-2.49 .07-1.17 1.05-2.11 2.24-2.11Zm7.5 6.72c1.2 1.42 2.97 2.27 4.87 2.27 1.89 0 3.67-.86 4.875-2.28 1.2 1.42 2.97 2.27 4.875 2.27 1.89 0 3.67-.85 4.875-2.28 1.51 1.81 3.92 2.65 6.32 2.11 .69-.16 1.33-.43 1.92-.8v12.96h-36v-3h27.75c.41 0 .75-.34.75-.75 0-.42-.34-.75-.75-.75H5.98v-8.47c.58.37 1.23.64 1.92.79 2.39.53 4.81-.3 6.32-2.12ZM9 31.47c-.42 0-.75.33-.75.75v1.5c0 .41.33.75.75.75 .41 0 .75-.34.75-.75v-1.5c0-.42-.34-.75-.75-.75Zm3.75 0c-.42 0-.75.33-.75.75v1.5c0 .41.33.75.75.75 .41 0 .75-.34.75-.75v-1.5c0-.42-.34-.75-.75-.75Zm3.75 0c-.42 0-.75.33-.75.75v1.5c0 .41.33.75.75.75 .41 0 .75-.34.75-.75v-1.5c0-.42-.34-.75-.75-.75Zm3.75 0c-.42 0-.75.33-.75.75v1.5c0 .41.33.75.75.75 .41 0 .75-.34.75-.75v-1.5c0-.42-.34-.75-.75-.75Zm3.75 0c-.42 0-.75.33-.75.75v1.5c0 .41.33.75.75.75 .41 0 .75-.34.75-.75v-1.5c0-.42-.34-.75-.75-.75Zm3.75 0c-.42 0-.75.33-.75.75v1.5c0 .41.33.75.75.75 .41 0 .75-.34.75-.75v-1.5c0-.42-.34-.75-.75-.75Zm3.75 0c-.42 0-.75.33-.75.75v1.5c0 .41.33.75.75.75 .41 0 .75-.34.75-.75v-1.5c0-.42-.34-.75-.75-.75Zm3.75 0c-.42 0-.75.33-.75.75v1.5c0 .41.33.75.75.75 .41 0 .75-.34.75-.75v-1.5c0-.42-.34-.75-.75-.75Zm3.75 0c-.42 0-.75.33-.75.75v1.5c0 .41.33.75.75.75 .41 0 .75-.34.75-.75v-1.5c0-.42-.34-.75-.75-.75Zm-2.25 6c-.42 0-.75.33-.75.75 0 .41.33.75.75.75h3c.41 0 .75-.34.75-.75 0-.42-.34-.75-.75-.75Zm-34.36 6h43.5c-.71.94-1.83 1.5-3 1.5H5.39c-1.18 0-2.3-.56-3-1.5Z"/>
</svg>