<svg viewBox="0 0 64 64" xmlns="http://www.w3.org/2000/svg">
    <path fill="currentColor"
          d="M31.98 1.14c-.14.02-.27.07-.4.15 -.5.3-.6.89-.3 1.39l1.39 2c.19.3.2.69.1 1l-1 1.9c-.5 1-.41 2.09.19 2.99l.59 1c.2.3.2.8 0 1.1l-.5.8c-.7 1-.7 2.3 0 3.3l.5.79c.2.3.2.8 0 1.1l-1.2 1.7c-.31.5-.21 1.09.29 1.39 .19.1.4.19.6.19 .3 0 .59-.2.79-.41l1.2-1.8c.69-1 .69-2.31 0-3.31l-.5-.81c-.2-.31-.2-.81 0-1.11l.5-.8c.69-1 .69-2.31 0-3.31l-.61-1c-.2-.31-.2-.7-.11-1l1-1.9c.5-1 .4-2.11-.2-3l-1.41-2c-.23-.38-.62-.53-1.02-.46Zm-6 6.8c-.14.02-.27.07-.4.15 -.5.29-.6.89-.3 1.39l1.29 2c.2.3.2.8 0 1.09l-.5.8c-.7 1-.7 2.29 0 3.29l.5.8c.2.3.2.8 0 1.09l-1.2 1.8c-.31.5-.21 1.09.29 1.39 .19.1.4.19.6.19 .3 0 .59-.2.79-.41l1.2-1.8c.69-1 .69-2.31 0-3.31l-.5-.81c-.2-.31-.2-.81 0-1.11l.5-.8c.69-1 .69-2.31 0-3.31l-1.31-2.11c-.23-.375-.62-.53-1.02-.45Zm13.93 3.2c-.25.04-.48.19-.625.44l-1.31 1.9c-.7 1-.7 2.3 0 3.3l.5.79c.19.3.19.8 0 1.1l-1.2 1.8c-.31.5-.21 1.1.29 1.4 .2 0 .4.09.6.09 .3 0 .6-.2.8-.41l1.19-1.8c.69-1 .69-2.31 0-3.31l-.5-.81c-.2-.31-.2-.81 0-1.11l1.3-1.9c.3-.5.19-1.1-.31-1.4 -.25-.15-.53-.2-.78-.15Zm-19.94 2.89c-.14.02-.27.07-.4.14 -.5.3-.6.89-.3 1.39l1.29 1.9c.2.3.2.8 0 1.09l-1.2 1.8c-.31.5-.21 1.09.29 1.39 .19.1.4.19.6.19 .3 0 .59-.2.79-.41l1.2-1.8c.69-1 .69-2.31 0-3.31l-1.31-2c-.23-.375-.62-.53-1.02-.45Zm-5.99 6.94c-1.7 0-3 1.3-3 3h-2.4c-.61 0-1.21.3-1.61.8 -.4.5-.5 1.09-.4 1.69l1.79 7.09 -1.7 1.3c-.5.39-.81.99-.81 1.59v5.5c0 1.1.9 2 2 2h3.1l.5 1.9c.8 3.09 2.5 5.99 5 8.09H2.14c-.4 0-.7.19-.9.59 -.2.4-.11.7.09 1l1.2 1.6c1.29 1.8 3.39 2.8 5.59 2.8h42c2.19 0 4.3-1 5.6-2.81l1.19-1.61c.19-.3.3-.7.09-1 -.2-.3-.5-.6-.9-.6H42.7c1.89-1.7 3.39-3.81 4.29-6.1 3.4-.71 8.9-1.91 10.8-3.91 2.69-2.7 2.69-7.2 0-9.91 -1.91-1.9-4.71-2.5-7.21-1.7l1.3-6c.1-.61 0-1.21-.41-1.71 -.4-.5-.9-.7-1.6-.7h-33c0-1.7-1.31-3-3-3Zm0 2c.6 0 1 .39 1 1h-2c0-.61.39-1 1-1Zm-5.4 3h2.39v5.59c-.11 0-.1.1-.2.1l-.61.5Zm4.49 0h37.1l-4.2 19c-.9 3.8-3.2 7-6.5 9h-19.6c-3.21-1.9-5.51-5-6.41-8.6l-.41-1.41h2.9c1.1 0 2-.9 2-2v-5.5c0-.61-.31-1.2-.7-1.6l-3.9-3.21c-.11-.11-.21-.1-.31-.2Zm3.9 2c-.61 0-1 .39-1 1 0 .6.39 1 1 1h4c.6 0 1-.4 1-1 0-.61-.4-1-1-1Zm8 0c-.61 0-1 .39-1 1 0 .6.39 1 1 1h21c.6 0 1-.4 1-1 0-.61-.4-1-1-1Zm-12.91 5.3l3.9 3.19v5.5h-8v-5.5Zm40.52.76c1.39-.11 2.81.36 3.87 1.42 .89.89 1.5 2.19 1.5 3.59s-.5 2.6-1.5 3.6c-1.2 1.19-5.1 2.3-8.7 3.1 0-.11.1-.2.1-.31l2.29-10.6c.75-.49 1.58-.77 2.42-.84ZM16.95 45.95c-.61 0-1 .39-1 1v2c0 .6.39 1 1 1 .6 0 1-.4 1-1v-2c0-.61-.4-1-1-1Zm5 0c-.61 0-1 .39-1 1v2c0 .6.39 1 1 1 .6 0 1-.4 1-1v-2c0-.61-.4-1-1-1Zm5 0c-.61 0-1 .39-1 1v2c0 .6.39 1 1 1 .6 0 1-.4 1-1v-2c0-.61-.4-1-1-1Zm5 0c-.61 0-1 .39-1 1v2c0 .6.39 1 1 1 .6 0 1-.4 1-1v-2c0-.61-.4-1-1-1Zm5 0c-.61 0-1 .39-1 1v2c0 .6.39 1 1 1 .6 0 1-.4 1-1v-2c0-.61-.4-1-1-1Zm5 0c-.61 0-1 .39-1 1v2c0 .6.39 1 1 1 .6 0 1-.4 1-1v-2c0-.61-.4-1-1-1Zm-37.81 10h50c-.9 1.3-2.4 2-4 2h-42c-1.61 0-3.11-.7-4-2Z"/>
</svg>