<svg viewBox="0 0 48 48" xmlns="http://www.w3.org/2000/svg">
    <path fill="currentColor"
          d="M21.14 1.58c-.2-.01-.39.06-.54.21l-2.17 2.08c-.3.28-.31.76-.02 1.05 .14.14.33.23.53.23 .18 0 .375-.08.51-.22l2.16-2.09c.29-.29.3-.77.01-1.07 -.15-.15-.34-.23-.53-.23Zm-9.35 2.91c-1.65 0-3.11.52-4 1.44l-.09.08C6.62 7.1 4.11 9.67 4.11 14.72c0 4.33 2.57 8.51 4.1 10.62l.05.07c.03.04.09.13.18.26 4.87 7.1 10.88 12.4 16.95 14.92 5.37 2.24 8.22 2.83 10.17 2.83 .82 0 1.48-.11 2.11-.24 2.79-.61 6.26-2.67 7.18-5.29 .75-2.13.98-4.53.51-5.34 -.31-.54-.87-.82-1.65-1.19 -.18-.09-.36-.18-.56-.28 -.06-.04-5.76-2.89-6.81-3.25 -1.33-.51-2.5-.15-3.31 1l-.42.58c-.81 1.12-1.56 2.19-2.17 2.85 -.4.41-1.06.39-1.55.19l-.32-.13c-1.32-.54-4.04-1.65-7.41-4.67 -2.7-2.42-4.63-5.48-5.34-6.68 -.3-.51-.17-.69.33-1.28 .26-.34.53-.62.79-.9 .21-.24.43-.47.65-.72l.1-.12c.44-.52.76-.9 1.08-1.59 .55-1.08.03-2.15-.13-2.51 -.17-.35-1.33-3.18-2.17-5.24l-.86-2.09v-.01c-.8-1.93-1.6-2.1-2.8-2.15 -.35-.03-.75-.05-1.18-.05Zm14.25 1.16c-.1 0-.2.01-.3.05l-4.18 1.68c-.39.15-.57.59-.42.97 .11.29.39.46.69.46 .09 0 .18-.02.28-.06l4.17-1.69c.38-.16.57-.6.41-.99 -.12-.29-.4-.47-.69-.47Zm-13.99.34c.29 0 .57.01.83.03 .82.03.99.03 1.48 1.21l.85 2.08c1.14 2.79 2.03 4.95 2.19 5.31 .25.53.3.88.14 1.19 -.26.53-.47.78-.89 1.26l-.04.04Zm-1.54.13c.01.05 0 .1.02.14l4.98 12.1c-.15.16-.29.33-.45.51 -.48.56-1.29 1.51-.45 2.95 .92 1.57 2.87 4.57 5.62 7.03 3.56 3.18 6.55 4.4 7.83 4.92l.3.12c1.18.49 2.44.27 3.22-.57 .42-.47.91-1.1 1.4-1.79l10.62 5.3c-.06.18-.11.36-.18.55 -.71 2-3.71 3.79-6.09 4.31 -1.5.32-3.54.75-11.4-2.52 -5.8-2.42-11.59-7.53-16.29-14.4 -.11-.17-.19-.28-.22-.32l-.06-.08c-1.43-1.97-3.83-5.84-3.83-9.75 0-4.44 2.13-6.62 3.15-7.67l.08-.1c.38-.4.96-.69 1.64-.86Zm11.8 5.86c-.42 0-.75.33-.75.75 0 .41.33.75.75.75h3c.41 0 .75-.34.75-.75 0-.42-.34-.75-.75-.75Zm-9.1 10.99c-.1.01-.2.04-.29.09 -.36.21-.49.66-.27 1.02 .24.42.68 1.06 1.17 1.73 .14.19.37.3.6.3 .15 0 .31-.05.44-.15 .33-.25.4-.72.15-1.05 -.69-.93-1.01-1.46-1.09-1.6 -.16-.27-.46-.41-.75-.37Zm3.3 4.15c-.2-.02-.4.05-.55.18 -.31.27-.34.74-.07 1.05 .86.97 1.75 1.875 2.62 2.66 2.06 1.84 4.13 3.3 6.16 4.35 .1.05.22.08.34.08 .26 0 .53-.15.66-.41 .19-.37.04-.83-.33-1.01 -1.92-.99-3.89-2.38-5.85-4.14 -.84-.75-1.68-1.61-2.51-2.54 -.14-.16-.33-.25-.52-.25Zm18.66 2.05c.2-.02.42.02.69.125 .8.28 5.21 2.46 6.64 3.18 .2.1.4.19.58.28 .41.19.91.44.97.53 .07.21.1 1-.09 2.08l-10.1-5.05 .41-.59c.25-.37.53-.57.86-.59Z"/>
</svg>