<svg viewBox="0 0 48 48" xmlns="http://www.w3.org/2000/svg">
    <path fill="currentColor"
          d="M24.01 2.53c-.37-.01-.74.12-1.04.39L3.45 19.47c-.3.28-.47.67-.47 1.08v2.42c0 .6.35 1.14.91 1.37 .55.23 1.19.12 1.59-.27l.49-.42v18.31c0 .82.67 1.5 1.5 1.5h10.5c.82 0 1.5-.68 1.5-1.5v-12h9v12c0 .82.67 1.5 1.5 1.5h3.44c.39 0 .77-.16 1.05-.45l7.05-7.06c.28-.29.44-.67.44-1.06V24.36l.46.4c.28.27.66.42 1.03.42 .19 0 .39-.04.58-.13 .55-.24.91-.78.91-1.38v-2.43c0-.41-.17-.81-.49-1.11L24.96 2.87c-.29-.28-.66-.42-1.03-.42Zm.01 1.51L43.49 21.3l-.03 2.39 -18.5-16.36c-.29-.25-.64-.38-1-.38 -.35 0-.7.11-.97.35L4.47 22.94l-.04-2.4L23.93 4l.03 0Zm-.04 4.42l16.53 14.62c-.01.04-.03.08-.03.13v11.25h-6c-.83 0-1.5.67-1.5 1.5v6h-3v-12c0-.83-.68-1.5-1.5-1.5h-9c-.83 0-1.5.67-1.5 1.5v12H7.48v-19.5c0-.03-.02-.05-.02-.08Zm.01 7.26c-2.49 0-4.5 2.01-4.5 4.5 0 2.48 2.01 4.5 4.5 4.5 2.48 0 4.5-2.02 4.5-4.5 0-2.49-2.02-4.5-4.5-4.5Zm0 1.5c1.65 0 3 1.34 3 3 0 1.65-1.35 3-3 3 -1.66 0-3-1.35-3-3 0-1.66 1.34-3 3-3Zm10.5 18.75h4.94l-4.95 4.94Zm-25.5 1.5c-.42 0-.75.33-.75.75v1.5c0 .41.33.75.75.75 .41 0 .75-.34.75-.75v-1.5c0-.42-.34-.75-.75-.75Zm3.75 0c-.42 0-.75.33-.75.75v1.5c0 .41.33.75.75.75 .41 0 .75-.34.75-.75v-1.5c0-.42-.34-.75-.75-.75Zm3.75 0c-.42 0-.75.33-.75.75v1.5c0 .41.33.75.75.75 .41 0 .75-.34.75-.75v-1.5c0-.42-.34-.75-.75-.75Z"/>
</svg>