<svg viewBox="0 0 64 64" xmlns="http://www.w3.org/2000/svg">
    <path fill="currentColor"
          d="M32 4C18.54 4 8 8.28 8 13.75c0 .12.02.24.03.36 -2.3.34-4.11 2.25-4.26 4.64L2.09 47.17C2 48.72 3.12 50.1 4.67 50.31l.43.06 .69 6.9c.15 1.54 1.43 2.7 2.98 2.7H55.14c1.55 0 2.83-1.17 2.98-2.71l.69-6.91 .43-.07c1.55-.21 2.68-1.59 2.59-3.15L60.15 18.7c-.15-2.4-1.96-4.3-4.26-4.65 .01-.13.03-.25.03-.37 0-5.48-10.55-9.76-24-9.76Zm0 2c12.96 0 22 4.08 22 7.75 0 .09-.02.19-.03.29H10.02c-.02-.1-.04-.2-.04-.3 0-3.67 9.03-7.76 22-7.76ZM8.76 16.05h.43c.01 0 .03 0 .04 0h45.46c.01 0 .01 0 .03 0 .01 0 .02-.01.03-.01h.44c1.57 0 2.89 1.25 2.98 2.82l.76 13.12c-.55 0-.99.44-.99 1v2c0 .55.44 1 1 1 .07 0 .14-.03.22-.05l.66 11.34c.03.51-.36.98-.86 1.04l-7.04.97v-2.33c0-.56-.45-1-1-1h-4c-.56 0-1 .44-1 1v3.12c-9.31 1.1-18.7 1.1-28 0v-3.13c0-.56-.45-1-1-1h-4c-.56 0-1 .44-1 1v2.32l-7.04-.98c-.51-.07-.9-.53-.86-1.05l.66-11.35c.07.01.14.04.22.04 .55 0 1-.45 1-1v-2c0-.56-.45-1-1-1l.77-13.13c.08-1.58 1.41-2.83 2.98-2.83Zm23.23 3.94c-7.72 0-14 6.28-14 14 0 7.71 6.28 14 14 14 7.71 0 14-6.29 14-14 0-7.72-6.29-14-14-14Zm0 2c6.61 0 12 5.38 12 12 0 6.61-5.39 12-12 12 -6.62 0-12-5.39-12-12 0-6.62 5.38-12 12-12Zm-2 4c-1.11 0-2 .89-2 2v2h-2c-1.11 0-2 .89-2 2v4c0 1.1.89 2 2 2h2v2c0 1.1.89 2 2 2h4c1.1 0 2-.9 2-2v-2h2c1.1 0 2-.9 2-2v-4c0-1.11-.9-2-2-2h-2v-2c0-1.11-.9-2-2-2Zm0 2h4v3c0 .55.44 1 1 1h3v4h-3c-.56 0-1 .44-1 1v3h-4v-3c0-.56-.45-1-1-1h-3v-4h3c.55 0 1-.45 1-1Zm-20 4c-.56 0-1 .44-1 1v2c0 .55.44 1 1 1 .55 0 1-.45 1-1v-2c0-.56-.45-1-1-1Zm5 0c-.56 0-1 .44-1 1v2c0 .55.44 1 1 1 .55 0 1-.45 1-1v-2c0-.56-.45-1-1-1Zm34 0c-.56 0-1 .44-1 1v2c0 .55.44 1 1 1 .55 0 1-.45 1-1v-2c0-.56-.45-1-1-1Zm5 0c-.56 0-1 .44-1 1v2c0 .55.44 1 1 1 .55 0 1-.45 1-1v-2c0-.56-.45-1-1-1Zm-40 16h2v3c0 .33-.18.64-.44.82 -.17.11-.36.17-.57.17 -.31 0-.58-.15-.77-.35 -.15-.19-.24-.41-.24-.66Zm34 0h2v3c0 .25-.09.46-.24.65 -.2.2-.47.34-.77.34 -.22 0-.41-.06-.57-.18 -.26-.18-.44-.49-.44-.83ZM7.16 50.66l4.85.66c.16 1.48 1.43 2.66 2.96 2.66 1.25 0 2.32-.79 2.78-1.88 4.71.55 9.46.82 14.21.82s9.5-.27 14.21-.83c.45 1.09 1.53 1.87 2.78 1.87 1.53 0 2.81-1.18 2.96-2.67l4.85-.67 -.65 6.42c-.06.51-.49.89-1 .89H8.73c-.52 0-.95-.39-1-.91Z"/>
</svg>