<svg viewBox="0 0 64 64" xmlns="http://www.w3.org/2000/svg">
    <path fill="currentColor"
          d="M26.05 1c-.51 0-.94.375-1 .875 -1.03 8.145-5.64 15.05-10.1 21.72 -4.57 6.834-8.88 13.29-8.88 20.44 0 11 8.95 19.95 19.95 19.95s19.95-8.95 19.95-19.96c0-4.22-1.51-8.2-3.67-12.15 -.01-.01-.01-.01-.01-.02 -.01-.01-.01-.01-.01-.01 -1.51-2.75-3.33-5.48-5.19-8.28C32.63 16.88 28.02 9.97 27 1.82c-.07-.5-.49-.875-1-.875Zm24.94 3c-.56 0-1 .44-1 1 0 .55.44 1 1 1h9v4h-5c-.56 0-1 .44-1 1 0 .55.44 1 1 1h5v4h-5c-.56 0-1 .44-1 1 0 .55.44 1 1 1h5v4h-9c-.56 0-1 .44-1 1 0 .55.44 1 1 1h9v4h-5c-.56 0-1 .44-1 1 0 .55.44 1 1 1h5v4h-5c-.56 0-1 .44-1 1 0 .55.44 1 1 1h5v4h-9c-.56 0-1 .44-1 1 0 .55.44 1 1 1h9v4h-5c-.56 0-1 .44-1 1 0 .55.44 1 1 1h5v4h-5c-.56 0-1 .44-1 1 0 .55.44 1 1 1h5v4h-9c-.56 0-1 .44-1 1 0 .55.44 1 1 1h10c.55 0 1-.45 1-1V5c0-.56-.45-1-1-1h-10ZM26.04 6.89c1.89 6.54 5.7 12.25 9.41 17.81 1.64 2.46 3.25 4.86 4.61 7.26l-.42.22c-4.02 2.19-9.02 1.89-12.74-.77l-1.26-.9c-3.34-2.39-7.54-3.16-11.46-2.21 .77-1.2 1.58-2.41 2.39-3.63 3.71-5.56 7.52-11.28 9.41-17.82Zm-8.9 23.05c2.59-.09 5.19.67 7.36 2.22l1.25.89c2.4 1.72 5.27 2.59 8.15 2.59 2.3 0 4.62-.57 6.7-1.71l.4-.23c1.77 3.41 2.95 6.81 2.95 10.31 0 9.89-8.06 17.95-17.96 17.95s-17.96-8.06-17.96-17.96c-.001-4.43 1.89-8.7 4.47-13.04 0-.01 0-.01 0-.01 1.45-.67 3.01-1.02 4.57-1.07Zm-4.16 13.04c-.56 0-1 .44-1 1 0 .55.44 1 1 1h2c.55 0 1-.45 1-1 0-.56-.45-1-1-1h-2Zm3.34 5.5c-.13.01-.26.05-.38.12l-1.74 1c-.48.27-.65.88-.37 1.36 .18.32.51.5.86.5 .16 0 .34-.05.5-.14l1.73-1c.47-.28.64-.89.36-1.37 -.21-.36-.61-.55-1-.5Zm4.27 4.02c-.39-.05-.79.13-.99.49l-1 1.73c-.28.47-.12 1.08.36 1.36 .15.09.32.13.49.13 .34 0 .68-.18.86-.5l1-1.74c.27-.48.11-1.09-.37-1.37 -.12-.07-.25-.12-.38-.13Zm5.37 1.46c-.56 0-1 .44-1 1v2c0 .55.44 1 1 1 .55 0 1-.45 1-1v-2c0-.56-.45-1-1-1Z"/>
</svg>