<svg viewBox="0 0 48 48" xmlns="http://www.w3.org/2000/svg">
    <path fill="currentColor"
          d="M13.5 3c-3.31 0-6 2.69-6 6 0 3.3 2.69 6 6 6 3.3 0 6-2.7 6-6 0-3.31-2.7-6-6-6Zm21 0c-2.26 0-4.22 1.25-5.25 3.09 -.05 0-.1-.02-.15-.01 -2.97.54-5.12 3.66-5.12 7.41 0 .41.33.75.75.75h4.5c.41 0 .75-.34.75-.75v-.55c1.1 1.25 2.7 2.04 4.5 2.04 1.79 0 3.39-.8 4.5-2.05v.54c0 .41.33.75.75.75h4.5c.41 0 .75-.34.75-.75 0-3.75-2.16-6.87-5.12-7.42 -.05-.01-.1 0-.15 0 -1.03-1.85-3-3.1-5.25-3.1Zm-21 1.5C15.98 4.5 18 6.51 18 9c0 2.48-2.02 4.5-4.5 4.5C11.01 13.5 9 11.48 9 9c0-2.49 2.01-4.5 4.5-4.5Zm21 0c1.95 0 3.61 1.25 4.23 3h-8.48c.62-1.75 2.28-3 4.23-3Zm-6 3.35v4.89h-2.97c.21-2.25 1.37-4.15 2.96-4.9Zm12 0c1.58.75 2.75 2.65 2.96 4.89h-2.97ZM30 8.99h9c0 2.48-2.02 4.5-4.5 4.5 -2.49 0-4.5-2.02-4.5-4.5Zm-21.01 7.5c-1.65 0-3.13 1.1-3.6 2.68L2.22 29.88c-.18.57-.11 1.18.18 1.71 .29.52.77.91 1.35 1.07 .57.16 1.18.08 1.7-.21 .51-.29.89-.77 1.05-1.35l.97-3.43v16.16c0 1.44 1.17 2.625 2.625 2.625 1.44 0 2.625-1.18 2.625-2.625v-8.625h1.5v8.625c0 1.44 1.17 2.625 2.625 2.625 1.44 0 2.625-1.18 2.625-2.625V27.66l.97 3.42c.16.57.53 1.05 1.06 1.34 .51.29 1.125.36 1.7.2 .27-.08.51-.23.73-.41 .23.18.49.32.78.4 .53.15 1.09.1 1.59-.15l-.84 4.04c-.05.21.01.44.15.62 .14.17.35.27.58.27h2.25v6.375c0 1.44 1.17 2.625 2.625 2.625 1.44 0 2.625-1.18 2.625-2.625V37.39h1.5v6.375c0 1.44 1.17 2.625 2.625 2.625 1.44 0 2.625-1.18 2.625-2.625V37.39h3c.23 0 .45-.11.59-.3 .14-.19.19-.43.13-.65l-1-3.83c.32.05.67.04 1-.06 .57-.17 1.05-.55 1.35-1.08 .28-.54.35-1.15.18-1.72l-3.17-10.72c-.47-1.59-1.95-2.69-3.6-2.69H29.9c-1.65 0-3.13 1.1-3.6 2.68l-2.4 8.09 -2.4-8.09c-.47-1.59-1.95-2.69-3.6-2.69Zm0 1.5H18c.98 0 1.87.66 2.16 1.61l.85 2.88h-1.44l-.12-.4c-.11-.36-.46-.59-.83-.54 -.37.05-.65.37-.65.74v11.44h-9v-3.75h6.75c.41 0 .75-.34.75-.75 0-.42-.34-.75-.75-.75H8.97v-6.2c0-.375-.28-.7-.65-.75 -.38-.06-.73.17-.83.53l-.12.39H5.93l.85-2.89c.28-.95 1.16-1.62 2.16-1.62Zm21 0H39c.99 0 1.87.66 2.15 1.61l1.3 4.38h-1.46l-.54-1.9c-.12-.4-.53-.63-.92-.52 -.4.1-.64.51-.54.91l3.5 13.5H27.13l2.81-13.55c.08-.4-.17-.79-.56-.88 -.4-.1-.79.13-.9.52l-.54 1.89h-1.46l1.29-4.39c.28-.95 1.17-1.62 2.16-1.62Zm-24.46 6h1.45l-1.91 6.73c-.06.19-.18.34-.36.44 -.18.09-.375.12-.57.06 -.2-.06-.36-.18-.45-.36 -.1-.18-.13-.375-.07-.57Zm14.47 0h1.45l1.75 5.92c-.11.35-.11.71-.03 1.06 -.1.11-.22.21-.37.25 -.2.05-.4.03-.57-.07 -.18-.1-.3-.26-.36-.45Zm6.09 1.46c.05.01.09.03.14.03h1.31l-1.49 5.23c-.06.19-.18.34-.36.44 -.18.09-.375.12-.57.06 -.2-.06-.36-.18-.45-.36 -.1-.18-.13-.375-.07-.57Zm16.79 0l1.43 4.85c.05.19.03.39-.07.56 -.1.17-.26.3-.45.35 -.2.05-.4.03-.57-.07 -.18-.1-.3-.26-.36-.45l-1.49-5.24h1.31c.05 0 .09-.02.14-.04Zm-12.15 6.03c-.42 0-.75.33-.75.75v1.5c0 .41.33.75.75.75 .41 0 .75-.34.75-.75v-1.5c0-.42-.34-.75-.75-.75Zm3.75 0c-.42 0-.75.33-.75.75v1.5c0 .41.33.75.75.75 .41 0 .75-.34.75-.75v-1.5c0-.42-.34-.75-.75-.75Zm3.75 0c-.42 0-.75.33-.75.75v1.5c0 .41.33.75.75.75 .41 0 .75-.34.75-.75v-1.5c0-.42-.34-.75-.75-.75ZM8.98 35.23h2.25v8.625c0 .62-.51 1.125-1.125 1.125 -.63 0-1.125-.51-1.125-1.125Zm6.75 0h2.25v8.625c0 .62-.51 1.125-1.125 1.125 -.63 0-1.125-.51-1.125-1.125Zm14.25 2.25h2.25v6.375c0 .62-.51 1.125-1.125 1.125 -.63 0-1.125-.51-1.125-1.125Zm6.75 0h2.25v6.375c0 .62-.51 1.125-1.125 1.125 -.63 0-1.125-.51-1.125-1.125Z"/>
</svg>