<svg viewBox="0 0 48 48" xmlns="http://www.w3.org/2000/svg">
    <path fill="currentColor"
          d="M17.625 4.5c-2.69 0-4.875 2.19-4.875 4.87s2.19 4.87 4.875 4.87c2.57 0 4.64-2.04 4.81-4.57 .04-.1.06-.21.06-.31 0-.11-.02-.22-.07-.31 -.17-2.54-2.24-4.57-4.82-4.57Zm12.75 0c-2.69 0-4.875 2.19-4.875 4.87s2.19 4.87 4.875 4.87c2.57 0 4.64-2.04 4.81-4.57 .04-.1.06-.21.06-.31 0-.11-.02-.22-.07-.31 -.17-2.54-2.24-4.57-4.82-4.57ZM17.625 6C19.495 6 21 7.5 21 9.37c0 1.87-1.51 3.37-3.375 3.37 -1.88 0-3.375-1.51-3.375-3.38 0-1.88 1.5-3.38 3.375-3.38Zm12.75 0c1.87 0 3.375 1.5 3.375 3.37s-1.51 3.37-3.375 3.37c-1.88 0-3.375-1.51-3.375-3.38 0-1.88 1.5-3.38 3.375-3.38ZM9 14.25c-2.9 0-5.25 2.35-5.25 5.25 0 2.89 2.35 5.25 5.25 5.25 2.78 0 5.01-2.2 5.18-4.95 .04-.1.06-.21.06-.31 0-.11-.02-.22-.07-.31 -.18-2.74-2.41-4.95-5.19-4.95Zm30 0c-2.9 0-5.25 2.35-5.25 5.25 0 2.89 2.35 5.25 5.25 5.25 2.78 0 5.01-2.2 5.18-4.95 .04-.1.06-.21.06-.31 0-.11-.02-.22-.07-.31 -.18-2.74-2.41-4.95-5.19-4.95Zm-30 1.5c2.07 0 3.75 1.67 3.75 3.75 0 2.07-1.68 3.75-3.75 3.75 -2.08 0-3.75-1.68-3.75-3.75 0-2.08 1.67-3.75 3.75-3.75Zm30 0c2.07 0 3.75 1.67 3.75 3.75 0 2.07-1.68 3.75-3.75 3.75 -2.08 0-3.75-1.68-3.75-3.75 0-2.08 1.67-3.75 3.75-3.75ZM24 19.5c-3.31 0-6 2.69-6 6 0 3.3 2.69 6 6 6 3.19 0 5.76-2.54 5.93-5.7 .04-.1.06-.21.06-.31 0-.11-.02-.22-.07-.31 -.18-3.16-2.75-5.7-5.94-5.7Zm0 1.5c2.49 0 4.5 2 4.5 4.5 0 2.49-2.01 4.5-4.5 4.5 -2.5 0-4.5-2.01-4.5-4.5 0-2.5 2-4.5 4.5-4.5ZM9 25.5c-6.06 0-8.2 5.3-8.2 5.3 -.04.08-.06.17-.06.27v1.92c0 .41.33.75.75.75h15c.41 0 .75-.34.75-.75v-1.93c0-.1-.02-.19-.06-.28 0 0-2.15-5.31-8.2-5.31Zm30 0c-6.06 0-8.2 5.3-8.2 5.3 -.04.08-.06.17-.06.27v1.92c0 .41.33.75.75.75h15c.41 0 .75-.34.75-.75v-1.93c0-.1-.02-.19-.06-.28 0 0-2.15-5.31-8.2-5.31ZM9 27c4.99 0 6.62 3.92 6.75 4.23v1.01H2.25v-1.02C2.37 30.91 4 26.98 9 26.98Zm30 0c4.99 0 6.62 3.92 6.75 4.23v1.01h-13.5v-1.02c.12-.31 1.75-4.24 6.75-4.24Zm-15 6c-8.07 0-11.2 7.28-11.2 7.28 -.04.08-.06.18-.06.28v2.92c0 .41.33.75.75.75h21c.41 0 .75-.34.75-.75v-2.93c0-.11-.02-.2-.06-.29 0 0-3.13-7.29-11.2-7.29Zm0 1.5c6.96 0 9.6 5.91 9.75 6.25v1.99h-19.5v-2c.14-.34 2.78-6.26 9.75-6.26Zm-6 3.75c-.42 0-.75.33-.75.75v1.5c0 .41.33.75.75.75 .41 0 .75-.34.75-.75V39c0-.42-.34-.75-.75-.75Zm3.75 0c-.42 0-.75.33-.75.75v1.5c0 .41.33.75.75.75 .41 0 .75-.34.75-.75V39c0-.42-.34-.75-.75-.75Zm4.5 0c-.42 0-.75.33-.75.75v1.5c0 .41.33.75.75.75 .41 0 .75-.34.75-.75V39c0-.42-.34-.75-.75-.75Zm3.75 0c-.42 0-.75.33-.75.75v1.5c0 .41.33.75.75.75 .41 0 .75-.34.75-.75V39c0-.42-.34-.75-.75-.75Z"/>
</svg>