<svg viewBox="0 0 64 64" xmlns="http://www.w3.org/2000/svg">
    <path fill="currentColor"
          d="M20.76 4c-4.92 0-8.77 3.98-8.77 9.07 0 1.08.01 1.27.02 1.46 0 .01 0 .02 0 .03 -4.07.84-7.03 4.51-7.03 8.89 0 2.76 1.1 5.26 3 6.92 -1.91 1.66-3.01 4.15-3.01 6.92 0 4.95 3.8 8.69 8.84 8.69h.18c1.03 0 2.09 0 3.1-.29 .45 1 1.1 1.88 1.86 2.63v9.65h-11c-.56 0-1 .44-1 1 0 .55.44 1 1 1h48c.55 0 1-.45 1-1 0-.56-.45-1-1-1h-9v-11h8c.33 0 .64-.17.83-.45 .18-.28.22-.64.09-.94l-4.01-9.62h1.08c.33 0 .64-.17.83-.45 .18-.28.22-.64.09-.94l-4.01-9.62h1.08c.34 0 .66-.19.84-.48 .18-.3.19-.67.04-.98l-8-16c-.34-.68-1.46-.68-1.79 0l-3.82 7.62c-1.41-3.13-4.58-5.18-8.3-5.18 -.15 0-.3-.01-.44-.02 -.1-.01-.2-.02-.31-.02 -1.33-3.55-4.72-5.97-8.49-5.97Zm0 2c3.14 0 5.94 2.16 6.81 5.26 .13.49.63.8 1.14.71 .19-.04.43-.03.72-.01 .18.01.36.02.55.02 3.47 0 6.33 2.26 6.95 5.51 .01.06.05.12.07.18l-2.93 5.84c-.16.31-.14.67.04.97 .18.29.5.47.85.47h1.08l-4.01 9.61c-.13.3-.1.66.09.93 .18.27.49.44.83.44h1.08l-4.01 9.61c-.13.3-.1.66.09.93 .07.11.18.2.29.27 -1.33 1.36-3.14 2.16-5.08 2.16 -3.08 0-5.79-1.97-6.74-4.91 -.1-.29-.31-.52-.59-.63 -.28-.12-.59-.1-.85.04 -.66.35-1.43.44-2.3.46 -.29 0-.59 0-.9 0h-.19c-3.97 0-6.85-2.82-6.85-6.7 0-2.63 1.17-4.85 3.21-6.07 .3-.18.48-.51.48-.86 0-.36-.19-.68-.49-.86 -2.05-1.23-3.22-3.44-3.22-6.07 0-3.73 2.58-6.69 6.14-7.05 .51-.06.9-.49.9-1 0-.71-.02-.86-.03-1.02 -.02-.17-.03-.35-.03-1.34 0-3.97 2.97-7.08 6.76-7.08Zm22.23 4.23l6.38 12.76H36.6l6.38-12.77Zm-20.65 9.78c-.13-.02-.27-.01-.4.02 -.532.14-.85.69-.7 1.23 .64 2.31 2.22 4.31 4.32 5.49 .15.08.31.12.48.12 .35 0 .69-.19.87-.52 .26-.49.09-1.1-.39-1.37 -1.64-.92-2.87-2.48-3.37-4.28 -.12-.4-.45-.68-.84-.73Zm15.89 4.97h9.5l3.75 9h-17l3.75-9Zm-20.12 4.39c-.39-.06-.79.11-1 .47 -.29.47-.13 1.08.34 1.37 1.47.88 2.57 2.26 3.1 3.88 .13.42.52.69.95.69 .1 0 .2-.02.3-.05 .52-.17.81-.74.64-1.26 -.68-2.09-2.09-3.86-3.98-4.99 -.12-.08-.25-.12-.38-.14Zm18.11 6.6h13.5l3.75 9h-21l3.75-9Zm1.75 4c-.56 0-1 .44-1 1v2c0 .55.44 1 1 1 .55 0 1-.45 1-1v-2c0-.56-.45-1-1-1Zm5 0c-.56 0-1 .44-1 1v2c0 .55.44 1 1 1 .55 0 1-.45 1-1v-2c0-.56-.45-1-1-1Zm5 0c-.56 0-1 .44-1 1v2c0 .55.44 1 1 1 .55 0 1-.45 1-1v-2c0-.56-.45-1-1-1Zm-15.1 7h6.09v11h-12V50.8c2.38-.44 4.51-1.79 5.9-3.84Zm8.09 0h4v11h-4v-11Zm-20 2.85c1.2.66 2.56 1.06 4 1.12v7.02h-4v-8.15Z"/>
</svg>