<svg viewBox="0 0 64 64" xmlns="http://www.w3.org/2000/svg">
    <path fill="currentColor"
          d="M21 2c-.26 0-.52.09-.71.29 -.4.39-.4 1.02 0 1.41l3.58 3.58c-1.42.92-2.37 2.14-2.625 3.52 -5.04 1.93-8.61 5.33-9.45 9.42 -1.4.31-2.59 1.24-3.23 2.54l-1.88-.8c-1.87-.81-3.27-2.39-3.83-4.35l-.93-3.24c-.15-.54-.71-.84-1.24-.69 -.54.14-.84.7-.69 1.23l.92 3.23c.73 2.53 2.53 4.59 4.96 5.63l2.07.89c-.45 1.83-.75 3.7-.9 5.61l-6.24.77c-.55.06-.94.57-.87 1.11 .06.5.49.87.98.87 .03 0 .08 0 .125-.01l5.89-.74c-.01.23-.03.48-.03.72 0 2.66.29 5.23.82 7.68l-1.02.61c-1.79 1.07-3.14 2.75-3.8 4.73L-.07 54.9c-.18.52.1 1.09.62 1.26 .1.03.21.05.31.05 .41 0 .8-.27.94-.69l2.96-8.9c.5-1.53 1.54-2.83 2.92-3.65l.5-.3c3.26 11.51 12.18 19.8 22.65 19.8 10.46 0 19.38-8.29 22.65-19.81l.5.29c1.38.82 2.42 2.125 2.93 3.64l2.96 8.89c.14.41.53.68.94.68 .1 0 .21-.02.31-.06 .52-.18.8-.74.63-1.27l-2.97-8.9c-.67-1.99-2.01-3.67-3.8-4.74l-1.02-.62c.53-2.45.82-5.03.82-7.69 0-.25-.02-.49-.03-.73l5.89.73c.04 0 .08 0 .125 0 .5 0 .92-.37.99-.875 .06-.55-.33-1.05-.87-1.12l-6.24-.79c-.15-1.91-.45-3.79-.89-5.62l2.07-.9c2.42-1.04 4.23-3.1 4.96-5.64l.92-3.24c.14-.54-.16-1.09-.69-1.24 -.53-.16-1.09.15-1.24.68l-.93 3.23c-.56 1.95-1.96 3.53-3.83 4.34l-1.87.8c-.64-1.31-1.83-2.24-3.23-2.55 -.84-4.07-4.43-7.47-9.45-9.42 -.26-1.39-1.2-2.61-2.63-3.55l3.58-3.58c.39-.4.39-1.03 0-1.42 -.4-.4-1.03-.4-1.42 0l-4 4c-.02.01-.02.02-.03.03 -1.52-.6-3.32-.94-5.27-.94 -1.95 0-3.75.34-5.27.93 -.02-.02-.02-.04-.03-.05l-4-4c-.2-.2-.46-.3-.71-.3Zm10 5.39c3.19 0 6.02 1.08 7.22 2.6 -2.24-.6-4.68-.93-7.23-.93 -2.56 0-4.99.32-7.21.9 1.2-1.51 4.01-2.59 7.2-2.59Zm0 3.67c8.38 0 15.64 3.91 17.11 9.04H13.86c1.46-5.16 8.66-9.05 17.125-9.05ZM12.79 22.1h17.2v24.87c0 .55.44 1 1 1 .55 0 1-.45 1-1V22.09h17.2c1.2 0 2.27.82 2.59 2 .79 2.88 1.19 5.89 1.19 8.95 0 15.17-9.87 27.51-22 27.51 -12.14 0-22-12.35-22-27.52 0-3.06.4-6.08 1.19-8.96 .32-1.18 1.39-2.01 2.59-2.01Zm36.28 2.59c-.13-.03-.27-.02-.4.01 -.54.13-.86.68-.73 1.21 .19.75.35 1.53.48 2.3 .07.48.5.83.98.83 .05 0 .1-.01.16-.02 .54-.09.91-.61.82-1.15 -.14-.83-.32-1.67-.52-2.48 -.11-.41-.44-.69-.83-.75ZM12.22 31c-.57-.07-1.04.35-1.09.91 -.05.55.35 1.03.91 1.08l1.99.17c.02 0 .05 0 .08 0 .51 0 .95-.4 1-.92 .04-.56-.36-1.04-.92-1.09Zm37.59.96c-.56 0-1 .44-1 1 0 3.43-.59 6.74-1.74 9.82 -.2.51.07 1.09.58 1.28 .11.04.23.06.34.06 .4 0 .78-.25.93-.66 1.23-3.31 1.85-6.85 1.85-10.52 0-.56-.45-1-1-1Zm-35.62 4.69l-1.98.35c-.55.09-.91.61-.81 1.15 .08.48.5.82.98.82 .05 0 .11-.01.17-.02l1.96-.35c.54-.1.9-.62.81-1.17 -.1-.55-.61-.91-1.17-.82Zm1.78 5.21c-.13 0-.26.03-.39.08l-1.82.84c-.5.23-.72.83-.49 1.33 .17.36.52.57.9.57 .14 0 .28-.03.42-.1l1.81-.85c.5-.24.71-.83.48-1.33 -.18-.38-.56-.59-.95-.58Zm3.07 4.62c-.26-.02-.52.05-.74.23l-1.54 1.28c-.43.35-.48.98-.13 1.41 .19.23.48.35.76.35 .22 0 .45-.08.64-.24l1.53-1.29c.42-.36.47-.99.12-1.42 -.18-.22-.43-.34-.68-.36Zm11.92 3.46c-.56 0-1 .44-1 1v4c0 .55.44 1 1 1 .55 0 1-.45 1-1v-4c0-.56-.45-1-1-1Zm-8.15.24c-.26.04-.49.18-.65.41l-1.15 1.64c-.32.45-.21 1.07.24 1.39 .17.125.375.18.57.18 .31 0 .62-.16.81-.43l1.14-1.65c.31-.45.2-1.08-.25-1.4 -.23-.17-.5-.22-.75-.17Z"/>
</svg>