<?xml version="1.0" encoding="UTF-8"?>
<svg xmlns="http://www.w3.org/2000/svg" width="48pt" height="48pt"
     viewBox="0 0 48 48" version="1.1">
    <g id="surface454">
        <path style=" stroke:none;fill-rule:nonzero;fill:rgb(9.019608%,9.019608%,9.411765%);fill-opacity:1;"
              d="M 21.140625 1.589844 C 20.949219 1.585938 20.753906 1.65625 20.605469 1.800781 L 18.445312 3.886719 C 18.148438 4.171875 18.140625 4.648438 18.429688 4.945312 C 18.578125 5.09375 18.769531 5.175781 18.96875 5.175781 C 19.15625 5.175781 19.34375 5.105469 19.488281 4.964844 L 21.648438 2.878906 C 21.945312 2.589844 21.953125 2.117188 21.664062 1.816406 C 21.523438 1.671875 21.332031 1.59375 21.140625 1.589844 Z M 11.796875 4.5 C 10.152344 4.5 8.695312 5.027344 7.804688 5.949219 L 7.71875 6.035156 C 6.644531 7.132812 4.132812 9.699219 4.132812 14.75 C 4.132812 19.082031 6.707031 23.269531 8.238281 25.378906 L 8.296875 25.457031 C 8.332031 25.503906 8.394531 25.59375 8.484375 25.726562 C 13.355469 32.828125 19.371094 38.128906 25.4375 40.65625 C 30.816406 42.898438 33.664062 43.496094 35.613281 43.496094 C 36.4375 43.496094 37.097656 43.390625 37.726562 43.257812 C 40.519531 42.652344 43.988281 40.59375 44.910156 37.972656 C 45.660156 35.84375 45.890625 33.445312 45.429688 32.636719 C 45.125 32.097656 44.5625 31.824219 43.785156 31.449219 C 43.613281 31.367188 43.429688 31.277344 43.230469 31.175781 C 43.171875 31.144531 37.472656 28.292969 36.421875 27.925781 C 35.101562 27.421875 33.929688 27.78125 33.121094 28.929688 L 32.707031 29.515625 C 31.90625 30.644531 31.152344 31.710938 30.539062 32.375 C 30.148438 32.792969 29.480469 32.773438 28.996094 32.574219 L 28.683594 32.445312 C 27.371094 31.910156 24.648438 30.804688 21.277344 27.785156 C 18.582031 25.371094 16.648438 22.308594 15.945312 21.113281 C 15.652344 20.609375 15.777344 20.429688 16.277344 19.835938 C 16.546875 19.5 16.8125 19.21875 17.074219 18.9375 C 17.292969 18.707031 17.511719 18.476562 17.730469 18.21875 L 17.832031 18.101562 C 18.277344 17.585938 18.59375 17.210938 18.921875 16.511719 C 19.472656 15.433594 18.960938 14.363281 18.792969 14.007812 C 18.628906 13.660156 17.46875 10.835938 16.625 8.773438 L 15.769531 6.6875 L 15.769531 6.683594 C 14.972656 4.761719 14.175781 4.589844 12.972656 4.542969 C 12.625 4.519531 12.230469 4.5 11.796875 4.5 Z M 26.050781 5.660156 C 25.953125 5.660156 25.855469 5.679688 25.757812 5.714844 L 21.585938 7.402344 C 21.199219 7.554688 21.019531 7.996094 21.171875 8.378906 C 21.289062 8.671875 21.570312 8.847656 21.867188 8.847656 C 21.960938 8.847656 22.054688 8.832031 22.148438 8.792969 L 26.320312 7.109375 C 26.703125 6.953125 26.890625 6.515625 26.734375 6.128906 C 26.621094 5.84375 26.34375 5.667969 26.050781 5.660156 Z M 12.066406 6.007812 C 12.359375 6.011719 12.640625 6.023438 12.898438 6.039062 C 13.722656 6.074219 13.894531 6.078125 14.382812 7.253906 L 15.238281 9.339844 C 16.378906 12.132812 17.269531 14.292969 17.4375 14.652344 C 17.691406 15.183594 17.738281 15.535156 17.578125 15.851562 C 17.324219 16.390625 17.113281 16.636719 16.695312 17.121094 L 16.660156 17.164062 Z M 10.527344 6.140625 C 10.539062 6.191406 10.535156 6.242188 10.554688 6.289062 L 15.539062 18.390625 C 15.394531 18.550781 15.25 18.722656 15.09375 18.910156 C 14.617188 19.476562 13.8125 20.421875 14.648438 21.867188 C 15.570312 23.4375 17.527344 26.441406 20.277344 28.90625 C 23.839844 32.09375 26.835938 33.3125 28.113281 33.832031 L 28.414062 33.957031 C 29.597656 34.449219 30.863281 34.230469 31.640625 33.394531 C 32.070312 32.925781 32.550781 32.300781 33.046875 31.613281 L 43.667969 36.921875 C 43.613281 37.105469 43.5625 37.285156 43.496094 37.476562 C 42.792969 39.476562 39.789062 41.273438 37.410156 41.789062 C 35.917969 42.109375 33.871094 42.546875 26.011719 39.269531 C 20.214844 36.851562 14.429688 31.742188 9.722656 24.878906 C 9.613281 24.71875 9.535156 24.605469 9.503906 24.566406 L 9.453125 24.496094 C 8.027344 22.53125 5.632812 18.65625 5.632812 14.746094 C 5.632812 10.308594 7.765625 8.128906 8.789062 7.085938 L 8.878906 6.992188 C 9.261719 6.597656 9.839844 6.304688 10.527344 6.140625 Z M 22.335938 12.003906 C 21.921875 12.003906 21.585938 12.339844 21.585938 12.753906 C 21.585938 13.167969 21.921875 13.503906 22.335938 13.503906 L 25.335938 13.503906 C 25.75 13.503906 26.085938 13.167969 26.085938 12.753906 C 26.085938 12.339844 25.75 12.003906 25.335938 12.003906 Z M 13.238281 22.996094 C 13.140625 23.007812 13.042969 23.039062 12.957031 23.09375 C 12.597656 23.304688 12.476562 23.761719 12.6875 24.117188 C 12.933594 24.539062 13.375 25.183594 13.867188 25.847656 C 14.011719 26.046875 14.242188 26.148438 14.46875 26.148438 C 14.625 26.148438 14.78125 26.101562 14.914062 26 C 15.25 25.753906 15.320312 25.285156 15.070312 24.953125 C 14.386719 24.03125 14.066406 23.5 13.980469 23.359375 C 13.824219 23.089844 13.527344 22.957031 13.238281 22.996094 Z M 16.546875 27.152344 C 16.355469 27.140625 16.15625 27.203125 16.003906 27.339844 C 15.695312 27.613281 15.664062 28.085938 15.941406 28.398438 C 16.808594 29.375 17.691406 30.273438 18.570312 31.058594 C 20.632812 32.902344 22.703125 34.367188 24.730469 35.410156 C 24.839844 35.46875 24.957031 35.492188 25.074219 35.492188 C 25.34375 35.492188 25.605469 35.347656 25.738281 35.085938 C 25.929688 34.71875 25.785156 34.265625 25.417969 34.078125 C 23.503906 33.089844 21.535156 31.699219 19.570312 29.941406 C 18.734375 29.191406 17.890625 28.339844 17.0625 27.402344 C 16.925781 27.25 16.738281 27.160156 16.546875 27.152344 Z M 35.214844 29.207031 C 35.421875 29.191406 35.644531 29.234375 35.90625 29.332031 C 36.710938 29.613281 41.125 31.796875 42.550781 32.515625 C 42.757812 32.621094 42.953125 32.714844 43.132812 32.800781 C 43.542969 32.996094 44.050781 33.242188 44.109375 33.339844 C 44.1875 33.554688 44.210938 34.34375 44.027344 35.425781 L 33.933594 30.378906 L 34.347656 29.796875 C 34.605469 29.429688 34.878906 29.234375 35.214844 29.207031 Z M 35.214844 29.207031 "/>
    </g>
</svg>
